<svg xmlns="http://www.w3.org/2000/svg" width="224.489" height="42.901" viewBox="0 0 224.489 42.901"><defs><style>.a{fill:#fff;}.a,.b{fill-rule:evenodd;}.b{fill:none;stroke:#fff;stroke-width:13px;}</style></defs><g transform="translate(1 0)"><g transform="translate(-1 0)"><g transform="translate(26.874 9.144)"><path class="a" d="M295.889,3.273h0a10.155,10.155,0,0,0-3.129,7.814V24.975h5.4V11.087a4.946,4.946,0,0,1,1.329-3.8c.97-.891,2.941-1.26,4.945-1.089L307.424,1.1,304.407.919a10.7,10.7,0,0,0-8.518,2.354" transform="translate(-166.42 -0.836)"/><path class="a" d="M3.355,3.273h0A10.155,10.155,0,0,0,.226,11.087V24.975h5.4V11.087a4.946,4.946,0,0,1,1.329-3.8C7.925,6.4,9.9,6.028,11.9,6.2L14.889,1.1,11.872.919A10.7,10.7,0,0,0,3.355,3.273" transform="translate(-0.226 -0.836)"/></g><path class="a" d="M100.867,46.909h5.4V23.225h-5.4Z" transform="translate(-57.304 -13.627)"/><g transform="translate(0 0)"><path class="a" d="M473.707,23.7V37.633c0,2.362-1.359,4.01-3.743,4.01-2.362,0-3.7-1.649-3.7-4.01V23.7h-5.346V37.633c0,2.362-1.359,4.01-3.742,4.01-2.4,0-3.705-1.612-3.705-4.01V23.7h-5.383V37.633c0,5.356,3.733,9.395,9.089,9.395a8.57,8.57,0,0,0,6.409-2.757,8.575,8.575,0,0,0,6.384,2.757c5.443,0,9.089-3.951,9.089-9.395V23.7Z" transform="translate(-254.564 -13.751)"/><g transform="translate(0.432 0)"><path class="a" d="M11.982,9.846A11.983,11.983,0,0,0,5.4,11.818V.664H0V19.72c0,3.31.332,6.315,2.313,9.077a12.033,12.033,0,0,0,7.047,4.72,11.77,11.77,0,0,0,2.245.286q.188.006.376.006a11.981,11.981,0,1,0,0-23.963m6.652,11.981a6.652,6.652,0,1,1-6.652-6.652,6.659,6.659,0,0,1,6.652,6.652" transform="translate(-0.001 -0.664)"/></g><path class="a" d="M137.513,11.818a11.98,11.98,0,1,0-6.581,21.991c5.822,0,11.7-4.761,11.842-10.8.1-4.432.044-8.878.075-13.313q.032-4.517.064-9.035h-5.4Zm.071,10.009a6.652,6.652,0,1,1-6.652-6.652,6.659,6.659,0,0,1,6.652,6.652Z" transform="translate(-67.578 -0.664)"/><g transform="translate(77.508 9.224)"><path class="a" d="M24.473,11.8c-.022-.37-.054-.737-.1-1.1A12.154,12.154,0,0,0,12.533.022h-.086A11.981,11.981,0,1,0,19.1,21.968,6.648,6.648,0,0,1,6.887,25.361L6.4,24.626,2.538,28.474l.381.5A11.894,11.894,0,0,0,12.447,33.7,12.233,12.233,0,0,0,24.34,23.172a39.985,39.985,0,0,0,.089-5.394c0-1.945.162-4.005.044-5.976M19.1,12a6.652,6.652,0,1,1-6.652-6.652A6.659,6.659,0,0,1,19.1,12" transform="translate(-0.466 -0.021)"/></g><path class="a" d="M317.929,39.181a6.581,6.581,0,0,1-4.045,1.376,6.652,6.652,0,1,1,0-13.3,6.582,6.582,0,0,1,3.644,1.1l.808.59h0l3.777-3.777-.609-.5a11.981,11.981,0,1,0,0,18.49l.065-.056.626-.526L318.428,38.8Z" transform="translate(-171.516 -12.742)"/><path class="a" d="M248.214,22.646A11.981,11.981,0,1,0,262.58,40.078c-.261-.317-4.413-2.254-4.73-2.5a6.584,6.584,0,0,1-3.263,2.573,6.706,6.706,0,0,1-6.954-1.526l11.4-4.148v.014l5.205-1.895-.094-.585a11.982,11.982,0,0,0-15.929-9.369ZM245.666,33.6a6.654,6.654,0,0,1,11.54-4.2Z" transform="translate(-136.536 -12.741)"/><path class="a" d="M394.037,22.646A11.981,11.981,0,1,0,408.4,40.078c-.261-.317-4.413-2.254-4.73-2.5a6.584,6.584,0,0,1-3.263,2.573,6.706,6.706,0,0,1-6.954-1.526l11.4-4.148v.014L410.06,32.6l-.094-.585a11.982,11.982,0,0,0-15.929-9.369ZM391.489,33.6a6.654,6.654,0,0,1,11.54-4.2Z" transform="translate(-219.38 -12.741)"/><g transform="translate(0 42.47)"><path class="b"/></g><path class="a" d="M101.416,9.591a.423.423,0,0,0,.432.432h4.536a.423.423,0,0,0,.432-.432V5.055a.423.423,0,0,0-.432-.432Z" transform="translate(-57.616 -2.913)"/></g></g></g></svg>