<svg xmlns="http://www.w3.org/2000/svg" width="216.186" height="43" viewBox="0 0 216.186 43"><defs><style>.a{fill:#052882;fill-rule:evenodd;}</style></defs><path class="a" d="M1409.911,2987.571h-7.769l-11.564-30.355h8.816l6.632,18.933,6.6-18.933h8.844Zm-24.32-4.037a15.384,15.384,0,0,1-25.256-5.074,16.329,16.329,0,0,1-1.22-6.336,16.591,16.591,0,0,1,1.22-6.406,15.7,15.7,0,0,1,3.33-5.088,15.534,15.534,0,0,1,4.932-3.358,15.052,15.052,0,0,1,6.024-1.218,15.888,15.888,0,0,1,6.052,1.148,14.624,14.624,0,0,1,4.918,3.257,15.543,15.543,0,0,1,3.316,5.074,17.2,17.2,0,0,1,1.218,6.59,16.383,16.383,0,0,1-1.218,6.336A15.91,15.91,0,0,1,1385.591,2983.534Zm-3.87-14.8a8.044,8.044,0,0,0-1.658-2.608,7.167,7.167,0,0,0-2.452-1.672,7.965,7.965,0,0,0-5.98,0,7.006,7.006,0,0,0-2.438,1.672,7.935,7.935,0,0,0-1.63,2.608,9.168,9.168,0,0,0-.6,3.385,8.732,8.732,0,0,0,.6,3.26,8.114,8.114,0,0,0,1.63,2.608,7.6,7.6,0,0,0,2.438,1.744,7.161,7.161,0,0,0,2.99.638,7.607,7.607,0,0,0,2.99-.6,7.409,7.409,0,0,0,2.452-1.672,7.875,7.875,0,0,0,1.658-2.608,9.666,9.666,0,0,0,0-6.76Zm-31.96,18.833-6.15-11.026-5.386,7.144v3.881h-7.794V2945.14h7.794V2971.9l11.536-14.626h8.9l-10.064,12.642,10.064,17.657h-8.9Zm-29.932-20.761a7.816,7.816,0,0,0-1.658-1.6,7.2,7.2,0,0,0-2-.992,7.334,7.334,0,0,0-2.21-.34,7.016,7.016,0,0,0-2.993.652,7.344,7.344,0,0,0-2.435,1.828,8.757,8.757,0,0,0-1.63,2.792,10.233,10.233,0,0,0-.6,3.572,7.442,7.442,0,0,0,.6,2.976,7.767,7.767,0,0,0,1.63,2.438,7.464,7.464,0,0,0,2.435,1.644,7.8,7.8,0,0,0,5.174.285,7.985,7.985,0,0,0,1.97-.895,7.357,7.357,0,0,0,1.644-1.416,7.442,7.442,0,0,0,1.176-1.859l5.668,5.7a15.212,15.212,0,0,1-2.48,2.75,15.6,15.6,0,0,1-3.032,2.068,15.057,15.057,0,0,1-3.43,1.29,15.579,15.579,0,0,1-3.7.44,15.183,15.183,0,0,1-6.024-1.2,15.554,15.554,0,0,1-8.262-8.206,14.908,14.908,0,0,1-1.22-6.01,17.31,17.31,0,0,1,1.22-6.52,16.808,16.808,0,0,1,3.33-5.286,15.745,15.745,0,0,1,4.932-3.555,14.182,14.182,0,0,1,6.024-1.3,14.459,14.459,0,0,1,3.725.482,15.019,15.019,0,0,1,6.548,3.656,14.041,14.041,0,0,1,2.424,3.06l-5.67,5.7A7.553,7.553,0,0,0,1319.829,2966.81Zm-36.962,13.52q.453.045.908.045a7.673,7.673,0,0,0,2.182-.312,7.9,7.9,0,0,0,1.97-.894,7.41,7.41,0,0,0,2.82-3.274l5.67,5.7a15.426,15.426,0,0,1-2.48,2.75,15.706,15.706,0,0,1-3.034,2.068,15.071,15.071,0,0,1-3.43,1.29,15.553,15.553,0,0,1-3.7.44,15.31,15.31,0,0,1-10.956-4.509,15.51,15.51,0,0,1-3.33-5.057,16.638,16.638,0,0,1-1.22-6.451,17.178,17.178,0,0,1,1.22-6.576,14.865,14.865,0,0,1,8.262-8.331,15.646,15.646,0,0,1,6.024-1.162,15.275,15.275,0,0,1,3.711.451,15.628,15.628,0,0,1,8.986,6.152l-14.511,17.487A4.371,4.371,0,0,0,1282.867,2980.329Zm3.062-16.142a4.437,4.437,0,0,0-1.064-.254,9.848,9.848,0,0,0-1.09-.058,7.727,7.727,0,0,0-2.99.582,7.084,7.084,0,0,0-2.438,1.658,7.788,7.788,0,0,0-1.63,2.594,9.245,9.245,0,0,0-.6,3.413c0,.284.014.608.042.964s.078.725.142,1.092.148.722.242,1.062a4.015,4.015,0,0,0,.368.908Zm-29.338,6.038h.058a5.707,5.707,0,0,0-.454-2.254,5.86,5.86,0,0,0-3.09-3.1,5.611,5.611,0,0,0-2.24-.451,5.8,5.8,0,0,0-5.411,3.555,5.651,5.651,0,0,0-.454,2.254v17.345h-7.738V2945.14H1245v13.408a9.028,9.028,0,0,1,2.862-1.488,10.483,10.483,0,0,1,3-.44,13.152,13.152,0,0,1,5.275,1.064,13.423,13.423,0,0,1,4.294,2.917,13.973,13.973,0,0,1,2.89,4.339,13.234,13.234,0,0,1,1.064,5.286v17.345h-7.8Zm-29.932-3.416a7.813,7.813,0,0,0-1.658-1.6,7.2,7.2,0,0,0-2-.992,7.344,7.344,0,0,0-2.212-.34,7.023,7.023,0,0,0-2.99.652,7.38,7.38,0,0,0-2.438,1.828,8.865,8.865,0,0,0-1.63,2.792,10.3,10.3,0,0,0-.593,3.572,7.489,7.489,0,0,0,.593,2.976,7.867,7.867,0,0,0,1.63,2.438,7.511,7.511,0,0,0,2.438,1.644,7.8,7.8,0,0,0,5.174.285,7.984,7.984,0,0,0,1.97-.895,7.361,7.361,0,0,0,1.644-1.416,7.442,7.442,0,0,0,1.176-1.859l5.668,5.7a15.212,15.212,0,0,1-2.48,2.75,15.607,15.607,0,0,1-3.032,2.068,15.057,15.057,0,0,1-3.43,1.29,15.562,15.562,0,0,1-3.7.44,15.182,15.182,0,0,1-6.022-1.2,15.57,15.57,0,0,1-8.265-8.206,14.954,14.954,0,0,1-1.217-6.01,17.358,17.358,0,0,1,1.218-6.52,16.81,16.81,0,0,1,3.332-5.286,15.744,15.744,0,0,1,4.932-3.556,14.178,14.178,0,0,1,6.021-1.3,14.459,14.459,0,0,1,3.728.482,15.021,15.021,0,0,1,6.548,3.656,14.045,14.045,0,0,1,2.424,3.06l-5.671,5.7A7.621,7.621,0,0,0,1226.66,2966.81Z" transform="translate(-1205.288 -2945.14)"/></svg>