<svg id="Group_306" data-name="Group 306" xmlns="http://www.w3.org/2000/svg" xmlns:xlink="http://www.w3.org/1999/xlink" width="375" height="640" viewBox="0 0 375 640">
  <defs>
    <clipPath id="clip-path">
      <rect id="Rectangle_213" data-name="Rectangle 213" width="375" height="640" fill="#fff" stroke="#707070" stroke-width="1"/>
    </clipPath>
    <linearGradient id="linear-gradient" x1="0.501" y1="0.607" x2="0.499" y2="0.001" gradientUnits="objectBoundingBox">
      <stop offset="0" stop-color="#f6f9fe"/>
      <stop offset="1" stop-color="#beebff"/>
    </linearGradient>
    <linearGradient id="linear-gradient-2" x1="0.5" y1="0.608" x2="0.495" y2="-0.001" xlink:href="#linear-gradient"/>
  </defs>
  <g id="Mask_Group_3" data-name="Mask Group 3" clip-path="url(#clip-path)">
    <g id="Group_281" data-name="Group 281" transform="translate(1931.445 1574.723)">
      <g id="Group_276" data-name="Group 276" transform="translate(-2600 -1779)">
        <g id="Group_275" data-name="Group 275" transform="translate(153.216 0)">
          <path id="Path_878" data-name="Path 878" d="M-2074.369-1320.365c-82.946,87.869-74.942,204.925-11.172,304.177,40.35,62.8,99.063,114.287,173.16,156.624,29.9,17.08,52.043,31.578,80.431,44.882-51.248-18-77.635-37.218-119.646-61.761-72.564-42.393-130.061-93.947-169.576-156.833-52.548-83.63-66.43-179.885-21.107-260.724,12.28-21.9,28.9-42.677,50.285-61.758,175.079-156.258,542.65-160.47,767.392-73.025-230.952-68.294-565.463-54.087-731.146,90.534Q-2065.729-1329.533-2074.369-1320.365Z" transform="translate(2169.584 1485.985)" opacity="0.667" fill="url(#linear-gradient)" style="isolation: isolate"/>
        </g>
        <path id="Path_879" data-name="Path 879" d="M-1721.534-298.024q-3.266,3.022-6.667,5.964c-74.71,64.513-186.575,109.043-288.446,129.243-84.894,15.126-185.146,12.6-288.632-11.395s-132.321-47.5-190.705-80.858c-74.1-42.337-132.81-93.822-173.162-156.624-68.2-106.152-72.618-232.668,29.8-322.061,29.058-25.366,63.313-46.718,101.288-64.315-45.323,80.839-31.442,177.094,21.108,260.724,39.515,62.886,97.011,114.44,169.575,156.833,42.01,24.543,68.4,43.76,119.645,61.761,27.054,12.679,59.777,24.269,110.274,35.977,103.49,23.993,203.742,26.521,288.635,11.4C-1792.1-278.664-1756.182-287.065-1721.534-298.024Z" transform="translate(2718.584 990.055)" fill="#133e95" style="isolation: isolate"/>
        <path id="Path_880" data-name="Path 880" d="M-1831.949-386.857c-51.248-18-77.635-37.218-119.646-61.761-72.564-42.393-130.061-93.947-169.576-156.833-52.548-83.63-66.43-179.885-21.107-260.724a593.848,593.848,0,0,1,67.909-26.365c-82.946,87.869-74.942,204.925-11.172,304.177,40.35,62.8,99.063,114.287,173.16,156.624C-1882.485-414.659-1860.337-400.161-1831.949-386.857Z" transform="translate(2322.801 1058.16)" opacity="0.667" fill="url(#linear-gradient-2)" style="isolation: isolate"/>
        <path id="Path_881" data-name="Path 881" d="M-1123.269-636.6c-5.716,39.479-17.663,81.163-38.7,119.63-65.374,38.1-142.218,65.293-214.108,80.026-85.264,15.7-185.954,13.075-289.892-11.828-27.567-6.6-49.858-13.173-68.829-19.9-29.115-13.789-51.831-28.817-82.491-46.52-75.994-43.882-136.21-97.246-177.593-162.34-65.4-102.875-73.613-224.2,11.458-315.279,225.359-73.3,532.9-42.944,702.353,51.86C-1152.21-868.852-1106.854-749.919-1123.269-636.6Z" transform="translate(2233.41 1138.516)" fill="#fff" style="isolation: isolate"/>
        <path id="Path_882" data-name="Path 882" d="M-859.026-1056.7c-9.385,65.557-36.342,137.4-94.729,188.953-21.754,19.209-46.729,36.649-73.708,52.205,20.512-37.112,32.161-77.328,37.734-115.417,16.006-109.331-28.218-224.075-153.864-293.639-165.219-91.466-465.085-120.756-684.818-50.034q8.645-9.16,18.624-17.884c165.682-144.62,500.193-158.828,731.145-90.534a531.29,531.29,0,0,1,68.936,32.326C-886.661-1281.075-843.356-1166.18-859.026-1056.7Z" transform="translate(2076.842 1440.257)" fill="#1649b0" style="isolation: isolate"/>
        <path id="Path_883" data-name="Path 883" d="M-401.253,752.46a267.666,267.666,0,0,1-52.328,67.32c-34.648,10.96-70.563,19.36-107.29,26.644-84.894,15.126-185.146,12.6-288.635-11.4-50.5-11.707-83.22-23.3-110.274-35.976a665.611,665.611,0,0,0,67.111,19.2c101.343,24.026,199.519,26.557,282.655,11.412C-539.92,815.454-465,789.215-401.253,752.46Z" transform="translate(1450.631 -127.75)" fill="#174cb7" style="isolation: isolate"/>
        <path id="Path_884" data-name="Path 884" d="M1169.453-1004.916c-9.581,65.47-68.7,206.518-145.6,268.262C972.937-693.1,915.474-665.624,854.02-646.192a267.67,267.67,0,0,0,52.328-67.32c26.979-15.556,51.954-33,73.708-52.205,58.387-51.552,85.343-123.4,94.729-188.952,15.67-109.476-27.635-224.371-150.679-294.025a531.245,531.245,0,0,0-68.936-32.326c43.076,12.735,82.55,28.344,116.651,46.509,1.909,1.016,118.847-1.186,120.991,0C1218.457-1164.95,1185.455-1114.249,1169.453-1004.916Z" transform="translate(143.03 1338.222)" fill="#133b8e" style="isolation: isolate"/>
      </g>
    </g>
  </g>
  <rect id="Rectangle_210" data-name="Rectangle 210" width="141" height="117" transform="translate(234)" fill="#fff"/>
</svg>
