<svg xmlns="http://www.w3.org/2000/svg" width="31.255" height="24.979" viewBox="0 0 31.255 24.979">
  <path id="Fill_44" data-name="Fill 44" d="M31.122,3.033a.524.524,0,0,0-.622-.118,8.438,8.438,0,0,1-1.379.448,6.18,6.18,0,0,0,1.3-2.262.52.52,0,0,0-.8-.566A14.456,14.456,0,0,1,26.173,1.84,6.665,6.665,0,0,0,21.539,0a7.59,7.59,0,0,0-3.887,1.15C15.162,2.568,14.785,5.687,15,7.516A17.386,17.386,0,0,1,2.895,1.45a.521.521,0,0,0-.848.059,6.145,6.145,0,0,0-.724,4.842,7.35,7.35,0,0,0,1.359,2.7A7.556,7.556,0,0,1,1.5,8.274a.521.521,0,0,0-.845.407A7.208,7.208,0,0,0,4.462,14.8,10.57,10.57,0,0,1,3.3,14.511a.521.521,0,0,0-.622.717,8.269,8.269,0,0,0,5.675,4.551A12.624,12.624,0,0,1,.58,21.421a.529.529,0,0,0-.555.361.52.52,0,0,0,.247.613,20.473,20.473,0,0,0,10.08,2.584h.023A17.7,17.7,0,0,0,23.69,18.868,16.619,16.619,0,0,0,28.157,6.7a12.475,12.475,0,0,0,3.014-3.04.52.52,0,0,0-.049-.631" fill="#fff"/>
</svg>
