<svg xmlns="http://www.w3.org/2000/svg" width="25.646" height="24.966" viewBox="0 0 25.646 24.966">
  <g id="Group_254" data-name="Group 254" transform="translate(-31.367 -32.932)">
    <path id="Path_874" data-name="Path 874" d="M57.013,45.755a12.823,12.823,0,1,0-17,12.128,1.23,1.23,0,0,0,.66-.955c0-.705-.015-2.52-.015-2.52a8.894,8.894,0,0,1-1.351.095,2.9,2.9,0,0,1-2.936-1.981,3.472,3.472,0,0,0-1.44-1.708c-.332-.214-.408-.465-.024-.537,1.772-.332,2.225,2,3.408,2.37a3.328,3.328,0,0,0,2.471-.2A2.555,2.555,0,0,1,41.806,50.8c-3.009-.288-4.794-1.327-5.719-3l-.1-.187-.233-.531-.069-.19a8.992,8.992,0,0,1-.418-2.9,4.956,4.956,0,0,1,1.414-3.68,5.138,5.138,0,0,1,.222-3.7s1.3-.269,3.765,1.485a13.724,13.724,0,0,1,6.577-.126c1.033-.679,2.923-1.643,3.686-1.373.207.331.651,1.294.27,3.411a5.956,5.956,0,0,1,1.61,4.25,11,11,0,0,1-.33,2.638l-.111.377s-.064.178-.133.347l-.081.187c-.893,1.95-2.724,2.678-5.683,2.981.959.6,1.234,1.354,1.234,3.392s-.027,2.312-.021,2.781a1.294,1.294,0,0,0,.635.938A12.828,12.828,0,0,0,57.013,45.755Z" fill="#fff"/>
  </g>
</svg>
