<svg id="Group_253" data-name="Group 253" xmlns="http://www.w3.org/2000/svg" width="25.63" height="25.379" viewBox="0 0 25.63 25.379">
  <path id="Path_871" data-name="Path 871" d="M519.964,155.283c.009-.168.025-.335.025-.5q0-7.938,0-15.876c0-.49,0-.49.493-.49h4.041c.464,0,.464,0,.465.481a13.464,13.464,0,0,0,.083,1.8,2.79,2.79,0,0,0,.2-.241,5.493,5.493,0,0,1,4.565-2.472,7.884,7.884,0,0,1,3.016.392,4.732,4.732,0,0,1,3.161,3.682,17.416,17.416,0,0,1,.428,3.413c.057,3.114.019,6.23.02,9.345,0,.155.02.31.031.465h-5.27c.005-.168.013-.337.013-.5,0-2.61.009-5.22-.005-7.83a16.449,16.449,0,0,0-.131-1.936,2.437,2.437,0,0,0-2.242-2.422,2.793,2.793,0,0,0-3.36,2.017,8.164,8.164,0,0,0-.284,1.984c-.03,2.766-.013,5.532-.012,8.3,0,.131.019.262.028.393Z" transform="translate(-510.867 -129.904)" fill="#fff"/>
  <path id="Path_872" data-name="Path 872" d="M508.022,155.449c.01-.168.028-.334.028-.5q0-7.939,0-15.88c0-.487,0-.487.5-.487h4.222c.5,0,.5,0,.5.485q0,7.94,0,15.88c0,.168.016.336.025.5Z" transform="translate(-507.589 -130.071)" fill="#fff"/>
  <path id="Path_873" data-name="Path 873" d="M507.425,129.559a1.665,1.665,0,0,0,.1-.26,3.036,3.036,0,1,1,3.3,3.621,3.052,3.052,0,0,1-3.3-2.487,1.15,1.15,0,0,0-.094-.224Z" transform="translate(-507.425 -126.85)" fill="#fff"/>
</svg>
